<svg xmlns="http://www.w3.org/2000/svg" width="1440" height="1000" viewBox="0 0 1440 1000" role="img" aria-labelledby="title desc"><title id="title">User Administration</title><desc id="desc">GSI Partner Opportunity Tracker screen reference for /admin/users.</desc><style>text{font-family:Inter,Arial,sans-serif} .small{font-size:12px}.tiny{font-size:10px}.body{font-size:14px}.label{font-size:11px;letter-spacing:.06em;text-transform:uppercase}.h1{font-size:20px;font-weight:700}.h2{font-size:16px;font-weight:700}.muted{fill:#64748b}.line{stroke:#e2e8f0;stroke-width:1}.shadow{filter:url(#shadow)}</style><defs><filter id="shadow" x="-20%" y="-20%" width="140%" height="140%"><feDropShadow dx="0" dy="3" stdDeviation="5" flood-color="#0f172a" flood-opacity=".08"/></filter></defs><rect x="0" y="0" width="240" height="1000" rx="0" fill="#0f172a" stroke="none" stroke-width="1" class=""/><line x1="240" y1="0" x2="240" y2="1000" stroke="#1e293b" stroke-width="1"/><text x="24" y="31" font-size="10" fill="#64748b" font-weight="700" text-anchor="start">ALLIANCE SALES</text><text x="24" y="54" font-size="16" fill="#e2e8f0" font-weight="700" text-anchor="start">GSI Tracker</text><text x="212" y="43" font-size="22" fill="#64748b" font-weight="400" text-anchor="middle">‹</text><line x1="0" y1="76" x2="240" y2="76" stroke="#1e293b" stroke-width="1"/><rect x="20" y="99" width="24" height="24" rx="6" fill="transparent" stroke="none" stroke-width="1" class=""/><text x="32" y="116" font-size="11" fill="#94a3b8" font-weight="700" text-anchor="middle">◈</text><text x="56" y="116" font-size="13" fill="#94a3b8" font-weight="500" text-anchor="start">Actions</text><rect x="197" y="99" width="20" height="23" rx="12" fill="#d97706" stroke="none" stroke-width="1" class=""/><text x="207" y="115" font-size="11" fill="#fff" font-weight="600" text-anchor="middle">3</text><rect x="20" y="142" width="24" height="24" rx="6" fill="transparent" stroke="none" stroke-width="1" class=""/><text x="32" y="159" font-size="11" fill="#94a3b8" font-weight="700" text-anchor="middle">▦</text><text x="56" y="159" font-size="13" fill="#94a3b8" font-weight="500" text-anchor="start">Dashboard</text><rect x="20" y="185" width="24" height="24" rx="6" fill="transparent" stroke="none" stroke-width="1" class=""/><text x="32" y="202" font-size="11" fill="#94a3b8" font-weight="700" text-anchor="middle">♢</text><text x="56" y="202" font-size="13" fill="#94a3b8" font-weight="500" text-anchor="start">Partners</text><rect x="20" y="228" width="24" height="24" rx="6" fill="transparent" stroke="none" stroke-width="1" class=""/><text x="32" y="245" font-size="11" fill="#94a3b8" font-weight="700" text-anchor="middle">★</text><text x="56" y="245" font-size="13" fill="#94a3b8" font-weight="500" text-anchor="start">Outcomes</text><rect x="20" y="271" width="24" height="24" rx="6" fill="transparent" stroke="none" stroke-width="1" class=""/><text x="32" y="288" font-size="11" fill="#94a3b8" font-weight="700" text-anchor="middle">⌖</text><text x="56" y="288" font-size="13" fill="#94a3b8" font-weight="500" text-anchor="start">Nearby</text><rect x="12" y="309" width="216" height="34" rx="6" fill="#1e293b" stroke="none" stroke-width="1" class=""/><rect x="20" y="314" width="24" height="24" rx="6" fill="#3b82f6" stroke="none" stroke-width="1" class=""/><text x="32" y="331" font-size="11" fill="#fff" font-weight="700" text-anchor="middle">♟</text><text x="56" y="331" font-size="13" fill="#e2e8f0" font-weight="600" text-anchor="start">Users</text><line x1="0" y1="872" x2="240" y2="872" stroke="#1e293b" stroke-width="1"/><rect x="20" y="895" width="24" height="24" rx="6" fill="transparent" stroke="none" stroke-width="1" class=""/><text x="32" y="912" font-size="11" fill="#94a3b8" font-weight="700" text-anchor="middle">⚙</text><text x="56" y="912" font-size="13" fill="#94a3b8" font-weight="500" text-anchor="start">Profile &amp; Settings</text><text x="56" y="953" font-size="12" fill="#cbd5e1" font-weight="500" text-anchor="start">Alex Morgan</text><text x="56" y="971" font-size="10" fill="#64748b" font-weight="400" text-anchor="start">alex@alliancesales.com</text><rect x="20" y="958" width="24" height="24" rx="6" fill="transparent" stroke="none" stroke-width="1" class=""/><text x="32" y="975" font-size="11" fill="#94a3b8" font-weight="700" text-anchor="middle">↪</text><text x="56" y="992" font-size="12" fill="#94a3b8" font-weight="500" text-anchor="start">Sign out</text><rect x="240" y="0" width="1200" height="1000" rx="0" fill="#f6f7f9" stroke="none" stroke-width="1" class=""/><text x="272" y="44" font-size="20" fill="#0f172a" font-weight="700" text-anchor="start">User Administration</text><text x="272" y="67" font-size="12" fill="#64748b" font-weight="400" text-anchor="start">Manage users and organization access</text><rect x="1220" y="28" width="110" height="34" rx="6" fill="#3b82f6" stroke="none" stroke-width="1" class=""/><text x="1275" y="50" font-size="12" fill="#fff" font-weight="600" text-anchor="middle">＋ Add user</text><rect x="272" y="96" width="1120" height="84" rx="8" fill="#ffffff" stroke="#e2e8f0" stroke-width="1" class="shadow"/><text x="292" y="124" font-size="14" fill="#0f172a" font-weight="700" text-anchor="start">Organization access</text><text x="292" y="148" font-size="12" fill="#64748b" font-weight="400" text-anchor="start">Alliance Sales · 12 active users</text><text x="1004" y="124" font-size="11" fill="#64748b" font-weight="600" text-anchor="start">MCP read-only key</text><text x="1004" y="148" font-size="13" fill="#0f172a" font-weight="600" text-anchor="start">gsi_•••••••••••••••</text><rect x="1240" y="135" width="110" height="34" rx="6" fill="#f1f5f9" stroke="none" stroke-width="1" class=""/><text x="1295" y="157" font-size="12" fill="#0f172a" font-weight="600" text-anchor="middle">Regenerate</text><text x="272" y="226" font-size="18" fill="#0f172a" font-weight="700" text-anchor="start">Users</text><rect x="1054" y="215" width="220" height="36" rx="6" fill="#ffffff" stroke="#e2e8f0" stroke-width="1" class=""/><text x="1066" y="230" font-size="10" fill="#64748b" font-weight="500" text-anchor="start">Search users...</text><text x="1066" y="243" font-size="12" fill="#94a3b8" font-weight="400" text-anchor="start"></text><rect x="1286" y="216" width="76" height="34" rx="6" fill="#f1f5f9" stroke="none" stroke-width="1" class=""/><text x="1324" y="238" font-size="12" fill="#0f172a" font-weight="600" text-anchor="middle">Search</text><rect x="272" y="272" width="0NameEmailRoleRegionQuota" height="32" rx="0" fill="#f1f5f9" stroke="none" stroke-width="1" class=""/><line x1="272" y1="304" x2="1332" y2="304" stroke="#e2e8f0" stroke-width="1"/><text x="282" y="293" font-size="10" fill="#64748b" font-weight="600" text-anchor="start">Name</text><text x="532" y="293" font-size="10" fill="#64748b" font-weight="600" text-anchor="start">Email</text><text x="792" y="293" font-size="10" fill="#64748b" font-weight="600" text-anchor="start">Role</text><text x="942" y="293" font-size="10" fill="#64748b" font-weight="600" text-anchor="start">Region</text><text x="1092" y="293" font-size="10" fill="#64748b" font-weight="600" text-anchor="start">Quota</text><text x="1232" y="293" font-size="10" fill="#64748b" font-weight="600" text-anchor="start"></text><text x="282" y="326" font-size="12" fill="#0f172a" font-weight="600" text-anchor="start">Alex Morgan</text><text x="532" y="326" font-size="12" fill="#0f172a" font-weight="400" text-anchor="start">alex@alliancesales.com</text><text x="792" y="326" font-size="12" fill="#0f172a" font-weight="400" text-anchor="start">Admin</text><text x="942" y="326" font-size="12" fill="#0f172a" font-weight="400" text-anchor="start">Americas</text><text x="1092" y="326" font-size="12" fill="#0f172a" font-weight="400" text-anchor="start">$1.8M</text><text x="1232" y="326" font-size="12" fill="#0f172a" font-weight="400" text-anchor="start"></text><line x1="272" y1="338" x2="1332" y2="338" stroke="#e2e8f0" stroke-width="1"/><rect x="792" y="311" width="60" height="23" rx="12" fill="#f5f3ff" stroke="none" stroke-width="1" class=""/><text x="822" y="327" font-size="11" fill="#7c3aed" font-weight="600" text-anchor="middle">Admin</text><text x="1252" y="326" font-size="13" fill="#64748b" font-weight="700" text-anchor="start">✎   ⋯</text><text x="282" y="380" font-size="12" fill="#0f172a" font-weight="600" text-anchor="start">Jordan Lee</text><text x="532" y="380" font-size="12" fill="#0f172a" font-weight="400" text-anchor="start">jordan@alliancesales.com</text><text x="792" y="380" font-size="12" fill="#0f172a" font-weight="400" text-anchor="start">Rep</text><text x="942" y="380" font-size="12" fill="#0f172a" font-weight="400" text-anchor="start">Americas</text><text x="1092" y="380" font-size="12" fill="#0f172a" font-weight="400" text-anchor="start">$1.2M</text><text x="1232" y="380" font-size="12" fill="#0f172a" font-weight="400" text-anchor="start"></text><line x1="272" y1="392" x2="1332" y2="392" stroke="#e2e8f0" stroke-width="1"/><rect x="792" y="365" width="46" height="23" rx="12" fill="#eff6ff" stroke="none" stroke-width="1" class=""/><text x="815" y="381" font-size="11" fill="#3b82f6" font-weight="600" text-anchor="middle">Rep</text><text x="1252" y="380" font-size="13" fill="#64748b" font-weight="700" text-anchor="start">✎   ⋯</text><text x="282" y="434" font-size="12" fill="#0f172a" font-weight="600" text-anchor="start">Maria Chen</text><text x="532" y="434" font-size="12" fill="#0f172a" font-weight="400" text-anchor="start">maria@alliancesales.com</text><text x="792" y="434" font-size="12" fill="#0f172a" font-weight="400" text-anchor="start">Rep</text><text x="942" y="434" font-size="12" fill="#0f172a" font-weight="400" text-anchor="start">APAC</text><text x="1092" y="434" font-size="12" fill="#0f172a" font-weight="400" text-anchor="start">$900K</text><text x="1232" y="434" font-size="12" fill="#0f172a" font-weight="400" text-anchor="start"></text><line x1="272" y1="446" x2="1332" y2="446" stroke="#e2e8f0" stroke-width="1"/><rect x="792" y="419" width="46" height="23" rx="12" fill="#eff6ff" stroke="none" stroke-width="1" class=""/><text x="815" y="435" font-size="11" fill="#3b82f6" font-weight="600" text-anchor="middle">Rep</text><text x="1252" y="434" font-size="13" fill="#64748b" font-weight="700" text-anchor="start">✎   ⋯</text><text x="282" y="488" font-size="12" fill="#0f172a" font-weight="600" text-anchor="start">Sam Rivera</text><text x="532" y="488" font-size="12" fill="#0f172a" font-weight="400" text-anchor="start">sam@alliancesales.com</text><text x="792" y="488" font-size="12" fill="#0f172a" font-weight="400" text-anchor="start">Rep</text><text x="942" y="488" font-size="12" fill="#0f172a" font-weight="400" text-anchor="start">EMEA</text><text x="1092" y="488" font-size="12" fill="#0f172a" font-weight="400" text-anchor="start">$750K</text><text x="1232" y="488" font-size="12" fill="#0f172a" font-weight="400" text-anchor="start"></text><line x1="272" y1="500" x2="1332" y2="500" stroke="#e2e8f0" stroke-width="1"/><rect x="792" y="473" width="46" height="23" rx="12" fill="#eff6ff" stroke="none" stroke-width="1" class=""/><text x="815" y="489" font-size="11" fill="#3b82f6" font-weight="600" text-anchor="middle">Rep</text><text x="1252" y="488" font-size="13" fill="#64748b" font-weight="700" text-anchor="start">✎   ⋯</text><text x="282" y="542" font-size="12" fill="#0f172a" font-weight="600" text-anchor="start">Taylor Brooks</text><text x="532" y="542" font-size="12" fill="#0f172a" font-weight="400" text-anchor="start">taylor@alliancesales.com</text><text x="792" y="542" font-size="12" fill="#0f172a" font-weight="400" text-anchor="start">Rep</text><text x="942" y="542" font-size="12" fill="#0f172a" font-weight="400" text-anchor="start">Americas</text><text x="1092" y="542" font-size="12" fill="#0f172a" font-weight="400" text-anchor="start">$1.1M</text><text x="1232" y="542" font-size="12" fill="#0f172a" font-weight="400" text-anchor="start"></text><line x1="272" y1="554" x2="1332" y2="554" stroke="#e2e8f0" stroke-width="1"/><rect x="792" y="527" width="46" height="23" rx="12" fill="#eff6ff" stroke="none" stroke-width="1" class=""/><text x="815" y="543" font-size="11" fill="#3b82f6" font-weight="600" text-anchor="middle">Rep</text><text x="1252" y="542" font-size="13" fill="#64748b" font-weight="700" text-anchor="start">✎   ⋯</text><rect x="272" y="620" width="1120" height="160" rx="8" fill="#ffffff" stroke="#e2e8f0" stroke-width="1" class="shadow"/><text x="292" y="650" font-size="14" fill="#0f172a" font-weight="700" text-anchor="start">Data portability</text><text x="292" y="675" font-size="12" fill="#64748b" font-weight="400" text-anchor="start">Export or restore organization data and full backups.</text><rect x="292" y="706" width="130" height="34" rx="6" fill="#f1f5f9" stroke="none" stroke-width="1" class=""/><text x="357" y="728" font-size="12" fill="#0f172a" font-weight="600" text-anchor="middle">Export org data</text><rect x="434" y="706" width="130" height="34" rx="6" fill="#f1f5f9" stroke="none" stroke-width="1" class=""/><text x="499" y="728" font-size="12" fill="#0f172a" font-weight="600" text-anchor="middle">Import org data</text><rect x="578" y="706" width="112" height="34" rx="6" fill="#f1f5f9" stroke="none" stroke-width="1" class=""/><text x="634" y="728" font-size="12" fill="#0f172a" font-weight="600" text-anchor="middle">Full backup</text><text x="1018" y="713" font-size="11" fill="#dc2626" font-weight="700" text-anchor="start">Danger zone</text><rect x="1110" y="706" width="110" height="34" rx="6" fill="#dc2626" stroke="none" stroke-width="1" class=""/><text x="1165" y="728" font-size="12" fill="#fff" font-weight="600" text-anchor="middle">Clear data</text></svg>