<svg xmlns="http://www.w3.org/2000/svg" width="1440" height="1000" viewBox="0 0 1440 1000" role="img" aria-labelledby="title desc"><title id="title">Profile and Settings</title><desc id="desc">GSI Partner Opportunity Tracker screen reference for /profile.</desc><style>text{font-family:Inter,Arial,sans-serif} .small{font-size:12px}.tiny{font-size:10px}.body{font-size:14px}.label{font-size:11px;letter-spacing:.06em;text-transform:uppercase}.h1{font-size:20px;font-weight:700}.h2{font-size:16px;font-weight:700}.muted{fill:#64748b}.line{stroke:#e2e8f0;stroke-width:1}.shadow{filter:url(#shadow)}</style><defs><filter id="shadow" x="-20%" y="-20%" width="140%" height="140%"><feDropShadow dx="0" dy="3" stdDeviation="5" flood-color="#0f172a" flood-opacity=".08"/></filter></defs><rect x="0" y="0" width="240" height="1000" rx="0" fill="#0f172a" stroke="none" stroke-width="1" class=""/><line x1="240" y1="0" x2="240" y2="1000" stroke="#1e293b" stroke-width="1"/><text x="24" y="31" font-size="10" fill="#64748b" font-weight="700" text-anchor="start">ALLIANCE SALES</text><text x="24" y="54" font-size="16" fill="#e2e8f0" font-weight="700" text-anchor="start">GSI Tracker</text><text x="212" y="43" font-size="22" fill="#64748b" font-weight="400" text-anchor="middle">‹</text><line x1="0" y1="76" x2="240" y2="76" stroke="#1e293b" stroke-width="1"/><rect x="20" y="99" width="24" height="24" rx="6" fill="transparent" stroke="none" stroke-width="1" class=""/><text x="32" y="116" font-size="11" fill="#94a3b8" font-weight="700" text-anchor="middle">◈</text><text x="56" y="116" font-size="13" fill="#94a3b8" font-weight="500" text-anchor="start">Actions</text><rect x="197" y="99" width="20" height="23" rx="12" fill="#d97706" stroke="none" stroke-width="1" class=""/><text x="207" y="115" font-size="11" fill="#fff" font-weight="600" text-anchor="middle">3</text><rect x="20" y="142" width="24" height="24" rx="6" fill="transparent" stroke="none" stroke-width="1" class=""/><text x="32" y="159" font-size="11" fill="#94a3b8" font-weight="700" text-anchor="middle">▦</text><text x="56" y="159" font-size="13" fill="#94a3b8" font-weight="500" text-anchor="start">Dashboard</text><rect x="20" y="185" width="24" height="24" rx="6" fill="transparent" stroke="none" stroke-width="1" class=""/><text x="32" y="202" font-size="11" fill="#94a3b8" font-weight="700" text-anchor="middle">♢</text><text x="56" y="202" font-size="13" fill="#94a3b8" font-weight="500" text-anchor="start">Partners</text><rect x="20" y="228" width="24" height="24" rx="6" fill="transparent" stroke="none" stroke-width="1" class=""/><text x="32" y="245" font-size="11" fill="#94a3b8" font-weight="700" text-anchor="middle">★</text><text x="56" y="245" font-size="13" fill="#94a3b8" font-weight="500" text-anchor="start">Outcomes</text><rect x="20" y="271" width="24" height="24" rx="6" fill="transparent" stroke="none" stroke-width="1" class=""/><text x="32" y="288" font-size="11" fill="#94a3b8" font-weight="700" text-anchor="middle">⌖</text><text x="56" y="288" font-size="13" fill="#94a3b8" font-weight="500" text-anchor="start">Nearby</text><line x1="0" y1="872" x2="240" y2="872" stroke="#1e293b" stroke-width="1"/><rect x="12" y="890" width="216" height="34" rx="6" fill="#1e293b" stroke="none" stroke-width="1" class=""/><rect x="20" y="895" width="24" height="24" rx="6" fill="#3b82f6" stroke="none" stroke-width="1" class=""/><text x="32" y="912" font-size="11" fill="#fff" font-weight="700" text-anchor="middle">⚙</text><text x="56" y="912" font-size="13" fill="#e2e8f0" font-weight="600" text-anchor="start">Profile &amp; Settings</text><text x="56" y="953" font-size="12" fill="#cbd5e1" font-weight="500" text-anchor="start">Alex Morgan</text><text x="56" y="971" font-size="10" fill="#64748b" font-weight="400" text-anchor="start">alex@alliancesales.com</text><rect x="20" y="958" width="24" height="24" rx="6" fill="transparent" stroke="none" stroke-width="1" class=""/><text x="32" y="975" font-size="11" fill="#94a3b8" font-weight="700" text-anchor="middle">↪</text><text x="56" y="992" font-size="12" fill="#94a3b8" font-weight="500" text-anchor="start">Sign out</text><rect x="240" y="0" width="1200" height="1000" rx="0" fill="#f6f7f9" stroke="none" stroke-width="1" class=""/><text x="272" y="44" font-size="20" fill="#0f172a" font-weight="700" text-anchor="start">Profile &amp; Settings</text><text x="272" y="67" font-size="12" fill="#64748b" font-weight="400" text-anchor="start">Personal preferences, quota, and fiscal year settings</text><rect x="1242" y="28" width="120" height="34" rx="6" fill="#3b82f6" stroke="none" stroke-width="1" class=""/><text x="1302" y="50" font-size="12" fill="#fff" font-weight="600" text-anchor="middle">Save changes</text><rect x="272" y="96" width="700" height="410" rx="8" fill="#ffffff" stroke="#e2e8f0" stroke-width="1" class="shadow"/><text x="292" y="126" font-size="16" fill="#0f172a" font-weight="700" text-anchor="start">Profile</text><text x="292" y="148" font-size="11" fill="#64748b" font-weight="400" text-anchor="start">Your identity and revenue preferences</text><rect x="292" y="180" width="300" height="36" rx="6" fill="#ffffff" stroke="#e2e8f0" stroke-width="1" class=""/><text x="304" y="195" font-size="10" fill="#64748b" font-weight="500" text-anchor="start">Full name</text><text x="304" y="208" font-size="12" fill="#94a3b8" font-weight="400" text-anchor="start">Alex Morgan</text><rect x="614" y="180" width="320" height="36" rx="6" fill="#ffffff" stroke="#e2e8f0" stroke-width="1" class=""/><text x="626" y="195" font-size="10" fill="#64748b" font-weight="500" text-anchor="start">Email</text><text x="626" y="208" font-size="12" fill="#94a3b8" font-weight="400" text-anchor="start">alex@alliancesales.com</text><text x="292" y="252" font-size="11" fill="#64748b" font-weight="600" text-anchor="start">Revenue metric</text><rect x="292" y="264" width="250" height="36" rx="6" fill="#ffffff" stroke="#e2e8f0" stroke-width="1" class=""/><text x="306" y="287" font-size="12" fill="#0f172a" font-weight="500" text-anchor="start">ACV</text><text x="520" y="287" font-size="12" fill="#64748b" font-weight="700" text-anchor="start">▾</text><text x="574" y="252" font-size="11" fill="#64748b" font-weight="600" text-anchor="start">Region</text><rect x="574" y="264" width="360" height="36" rx="6" fill="#ffffff" stroke="#e2e8f0" stroke-width="1" class=""/><text x="588" y="287" font-size="12" fill="#0f172a" font-weight="500" text-anchor="start">Americas</text><text x="912" y="287" font-size="12" fill="#64748b" font-weight="700" text-anchor="start">▾</text><text x="292" y="338" font-size="11" fill="#64748b" font-weight="600" text-anchor="start">Fiscal year</text><rect x="292" y="350" width="250" height="36" rx="6" fill="#ffffff" stroke="#e2e8f0" stroke-width="1" class=""/><text x="306" y="373" font-size="12" fill="#0f172a" font-weight="400" text-anchor="start">January</text><text x="520" y="373" font-size="12" fill="#64748b" font-weight="700" text-anchor="start">▾</text><text x="574" y="338" font-size="11" fill="#64748b" font-weight="600" text-anchor="start">Annual quota</text><rect x="574" y="350" width="360" height="36" rx="6" fill="#ffffff" stroke="#e2e8f0" stroke-width="1" class=""/><text x="588" y="373" font-size="12" fill="#0f172a" font-weight="400" text-anchor="start">$1,800,000</text><rect x="1000" y="96" width="392" height="410" rx="8" fill="#ffffff" stroke="#e2e8f0" stroke-width="1" class="shadow"/><text x="1020" y="126" font-size="16" fill="#0f172a" font-weight="700" text-anchor="start">Quarterly goals</text><text x="1020" y="148" font-size="11" fill="#64748b" font-weight="400" text-anchor="start">Percentages should total 100%</text><text x="1020" y="200" font-size="12" fill="#0f172a" font-weight="600" text-anchor="start">Q1</text><rect x="1080" y="184" width="250" height="34" rx="6" fill="#f6f7f9" stroke="none" stroke-width="1" class=""/><rect x="1080" y="184" width="250" height="34" rx="6" fill="#eff6ff" stroke="none" stroke-width="1" class=""/><text x="1205" y="206" font-size="12" fill="#3b82f6" font-weight="700" text-anchor="middle">25%</text><text x="1020" y="258" font-size="12" fill="#0f172a" font-weight="600" text-anchor="start">Q2</text><rect x="1080" y="242" width="250" height="34" rx="6" fill="#f6f7f9" stroke="none" stroke-width="1" class=""/><rect x="1080" y="242" width="250" height="34" rx="6" fill="#eff6ff" stroke="none" stroke-width="1" class=""/><text x="1205" y="264" font-size="12" fill="#3b82f6" font-weight="700" text-anchor="middle">25%</text><text x="1020" y="316" font-size="12" fill="#0f172a" font-weight="600" text-anchor="start">Q3</text><rect x="1080" y="300" width="250" height="34" rx="6" fill="#f6f7f9" stroke="none" stroke-width="1" class=""/><rect x="1080" y="300" width="250" height="34" rx="6" fill="#eff6ff" stroke="none" stroke-width="1" class=""/><text x="1205" y="322" font-size="12" fill="#3b82f6" font-weight="700" text-anchor="middle">25%</text><text x="1020" y="374" font-size="12" fill="#0f172a" font-weight="600" text-anchor="start">Q4</text><rect x="1080" y="358" width="250" height="34" rx="6" fill="#f6f7f9" stroke="none" stroke-width="1" class=""/><rect x="1080" y="358" width="250" height="34" rx="6" fill="#eff6ff" stroke="none" stroke-width="1" class=""/><text x="1205" y="380" font-size="12" fill="#3b82f6" font-weight="700" text-anchor="middle">25%</text><rect x="272" y="536" width="1120" height="250" rx="8" fill="#ffffff" stroke="#e2e8f0" stroke-width="1" class="shadow"/><text x="292" y="566" font-size="16" fill="#0f172a" font-weight="700" text-anchor="start">Account security</text><text x="292" y="590" font-size="12" fill="#64748b" font-weight="400" text-anchor="start">Password and session settings are managed by WordPress authentication.</text><rect x="292" y="626" width="136" height="34" rx="6" fill="#f1f5f9" stroke="none" stroke-width="1" class=""/><text x="360" y="648" font-size="12" fill="#0f172a" font-weight="600" text-anchor="middle">Change password</text><text x="292" y="694" font-size="11" fill="#64748b" font-weight="600" text-anchor="start">Last sign-in</text><text x="292" y="716" font-size="12" fill="#0f172a" font-weight="400" text-anchor="start">Today at 9:42 AM · New York, NY</text><text x="820" y="694" font-size="11" fill="#64748b" font-weight="600" text-anchor="start">Role</text><rect x="820" y="704" width="54" height="23" rx="12" fill="#eff6ff" stroke="none" stroke-width="1" class=""/><text x="847" y="720" font-size="11" fill="#3b82f6" font-weight="600" text-anchor="middle">Rep</text></svg>